<mxfile host="app.diagrams.net" modified="2023-07-02T18:08:11.554Z" agent="Mozilla/5.0 (Windows NT 10.0; Win64; x64) AppleWebKit/537.36 (KHTML, like Gecko) Chrome/114.0.0.0 Safari/537.36 Edg/114.0.1823.58" etag="LxgMSEqCQPK0syOv_N_I" version="21.5.2" type="device">
  <diagram name="Page-1" id="2dhbECLWRLH1tQE8GDnK">
    <mxGraphModel dx="1114" dy="616" grid="1" gridSize="10" guides="1" tooltips="1" connect="1" arrows="1" fold="1" page="1" pageScale="1" pageWidth="850" pageHeight="1100" math="0" shadow="0">
      <root>
        <mxCell id="0" />
        <mxCell id="1" parent="0" />
        <mxCell id="OzQIe0mRv0SgeH8xm8h0-1" value="&amp;lt;Header&amp;gt;&lt;br&gt;*See Header_Small_Business_Website file for details" style="rounded=0;whiteSpace=wrap;html=1;" vertex="1" parent="1">
          <mxGeometry x="30" y="10" width="810" height="60" as="geometry" />
        </mxCell>
        <mxCell id="OzQIe0mRv0SgeH8xm8h0-2" value="&amp;lt;Footer&amp;gt;&lt;br&gt;*See Footer_Small_Business_Website file for details" style="rounded=0;whiteSpace=wrap;html=1;" vertex="1" parent="1">
          <mxGeometry x="10" y="520" width="830" height="60" as="geometry" />
        </mxCell>
        <mxCell id="OzQIe0mRv0SgeH8xm8h0-3" value="" style="swimlane;startSize=0;" vertex="1" parent="1">
          <mxGeometry x="30" y="90" width="800" height="410" as="geometry" />
        </mxCell>
        <mxCell id="OzQIe0mRv0SgeH8xm8h0-4" value="Container for grid layout of menu" style="text;html=1;align=center;verticalAlign=middle;resizable=0;points=[];autosize=1;strokeColor=none;fillColor=none;" vertex="1" parent="OzQIe0mRv0SgeH8xm8h0-3">
          <mxGeometry x="10" width="200" height="30" as="geometry" />
        </mxCell>
        <mxCell id="OzQIe0mRv0SgeH8xm8h0-5" value="" style="swimlane;startSize=0;" vertex="1" parent="OzQIe0mRv0SgeH8xm8h0-3">
          <mxGeometry x="20" y="30" width="230" height="360" as="geometry" />
        </mxCell>
        <mxCell id="OzQIe0mRv0SgeH8xm8h0-8" value="Col 1" style="text;html=1;align=center;verticalAlign=middle;resizable=0;points=[];autosize=1;strokeColor=none;fillColor=none;" vertex="1" parent="OzQIe0mRv0SgeH8xm8h0-5">
          <mxGeometry width="50" height="30" as="geometry" />
        </mxCell>
        <mxCell id="OzQIe0mRv0SgeH8xm8h0-11" value="Beverages" style="swimlane;fontStyle=0;childLayout=stackLayout;horizontal=1;startSize=30;horizontalStack=0;resizeParent=1;resizeParentMax=0;resizeLast=0;collapsible=1;marginBottom=0;whiteSpace=wrap;html=1;" vertex="1" parent="OzQIe0mRv0SgeH8xm8h0-5">
          <mxGeometry x="30" y="40" width="140" height="120" as="geometry" />
        </mxCell>
        <mxCell id="OzQIe0mRv0SgeH8xm8h0-12" value="Item 1" style="text;strokeColor=none;fillColor=none;align=left;verticalAlign=middle;spacingLeft=4;spacingRight=4;overflow=hidden;points=[[0,0.5],[1,0.5]];portConstraint=eastwest;rotatable=0;whiteSpace=wrap;html=1;" vertex="1" parent="OzQIe0mRv0SgeH8xm8h0-11">
          <mxGeometry y="30" width="140" height="30" as="geometry" />
        </mxCell>
        <mxCell id="OzQIe0mRv0SgeH8xm8h0-13" value="Item 2" style="text;strokeColor=none;fillColor=none;align=left;verticalAlign=middle;spacingLeft=4;spacingRight=4;overflow=hidden;points=[[0,0.5],[1,0.5]];portConstraint=eastwest;rotatable=0;whiteSpace=wrap;html=1;" vertex="1" parent="OzQIe0mRv0SgeH8xm8h0-11">
          <mxGeometry y="60" width="140" height="30" as="geometry" />
        </mxCell>
        <mxCell id="OzQIe0mRv0SgeH8xm8h0-14" value="Item 3" style="text;strokeColor=none;fillColor=none;align=left;verticalAlign=middle;spacingLeft=4;spacingRight=4;overflow=hidden;points=[[0,0.5],[1,0.5]];portConstraint=eastwest;rotatable=0;whiteSpace=wrap;html=1;" vertex="1" parent="OzQIe0mRv0SgeH8xm8h0-11">
          <mxGeometry y="90" width="140" height="30" as="geometry" />
        </mxCell>
        <mxCell id="OzQIe0mRv0SgeH8xm8h0-6" value="" style="swimlane;startSize=0;" vertex="1" parent="OzQIe0mRv0SgeH8xm8h0-3">
          <mxGeometry x="290" y="30" width="240" height="360" as="geometry" />
        </mxCell>
        <mxCell id="OzQIe0mRv0SgeH8xm8h0-9" value="Col 2" style="text;html=1;align=center;verticalAlign=middle;resizable=0;points=[];autosize=1;strokeColor=none;fillColor=none;" vertex="1" parent="OzQIe0mRv0SgeH8xm8h0-6">
          <mxGeometry width="50" height="30" as="geometry" />
        </mxCell>
        <mxCell id="OzQIe0mRv0SgeH8xm8h0-15" value="Sweets" style="swimlane;fontStyle=0;childLayout=stackLayout;horizontal=1;startSize=30;horizontalStack=0;resizeParent=1;resizeParentMax=0;resizeLast=0;collapsible=1;marginBottom=0;whiteSpace=wrap;html=1;" vertex="1" parent="OzQIe0mRv0SgeH8xm8h0-6">
          <mxGeometry x="45" y="40" width="140" height="120" as="geometry" />
        </mxCell>
        <mxCell id="OzQIe0mRv0SgeH8xm8h0-16" value="Item 1" style="text;strokeColor=none;fillColor=none;align=left;verticalAlign=middle;spacingLeft=4;spacingRight=4;overflow=hidden;points=[[0,0.5],[1,0.5]];portConstraint=eastwest;rotatable=0;whiteSpace=wrap;html=1;" vertex="1" parent="OzQIe0mRv0SgeH8xm8h0-15">
          <mxGeometry y="30" width="140" height="30" as="geometry" />
        </mxCell>
        <mxCell id="OzQIe0mRv0SgeH8xm8h0-17" value="Item 2" style="text;strokeColor=none;fillColor=none;align=left;verticalAlign=middle;spacingLeft=4;spacingRight=4;overflow=hidden;points=[[0,0.5],[1,0.5]];portConstraint=eastwest;rotatable=0;whiteSpace=wrap;html=1;" vertex="1" parent="OzQIe0mRv0SgeH8xm8h0-15">
          <mxGeometry y="60" width="140" height="30" as="geometry" />
        </mxCell>
        <mxCell id="OzQIe0mRv0SgeH8xm8h0-18" value="Item 3" style="text;strokeColor=none;fillColor=none;align=left;verticalAlign=middle;spacingLeft=4;spacingRight=4;overflow=hidden;points=[[0,0.5],[1,0.5]];portConstraint=eastwest;rotatable=0;whiteSpace=wrap;html=1;" vertex="1" parent="OzQIe0mRv0SgeH8xm8h0-15">
          <mxGeometry y="90" width="140" height="30" as="geometry" />
        </mxCell>
        <mxCell id="OzQIe0mRv0SgeH8xm8h0-7" value="" style="swimlane;startSize=0;" vertex="1" parent="OzQIe0mRv0SgeH8xm8h0-3">
          <mxGeometry x="570" y="30" width="210" height="360" as="geometry" />
        </mxCell>
        <mxCell id="OzQIe0mRv0SgeH8xm8h0-10" value="Col 3" style="text;html=1;align=center;verticalAlign=middle;resizable=0;points=[];autosize=1;strokeColor=none;fillColor=none;" vertex="1" parent="OzQIe0mRv0SgeH8xm8h0-7">
          <mxGeometry width="50" height="30" as="geometry" />
        </mxCell>
        <mxCell id="OzQIe0mRv0SgeH8xm8h0-19" value="Savories" style="swimlane;fontStyle=0;childLayout=stackLayout;horizontal=1;startSize=30;horizontalStack=0;resizeParent=1;resizeParentMax=0;resizeLast=0;collapsible=1;marginBottom=0;whiteSpace=wrap;html=1;" vertex="1" parent="OzQIe0mRv0SgeH8xm8h0-7">
          <mxGeometry x="50" y="40" width="140" height="120" as="geometry" />
        </mxCell>
        <mxCell id="OzQIe0mRv0SgeH8xm8h0-20" value="Item 1" style="text;strokeColor=none;fillColor=none;align=left;verticalAlign=middle;spacingLeft=4;spacingRight=4;overflow=hidden;points=[[0,0.5],[1,0.5]];portConstraint=eastwest;rotatable=0;whiteSpace=wrap;html=1;" vertex="1" parent="OzQIe0mRv0SgeH8xm8h0-19">
          <mxGeometry y="30" width="140" height="30" as="geometry" />
        </mxCell>
        <mxCell id="OzQIe0mRv0SgeH8xm8h0-21" value="Item 2" style="text;strokeColor=none;fillColor=none;align=left;verticalAlign=middle;spacingLeft=4;spacingRight=4;overflow=hidden;points=[[0,0.5],[1,0.5]];portConstraint=eastwest;rotatable=0;whiteSpace=wrap;html=1;" vertex="1" parent="OzQIe0mRv0SgeH8xm8h0-19">
          <mxGeometry y="60" width="140" height="30" as="geometry" />
        </mxCell>
        <mxCell id="OzQIe0mRv0SgeH8xm8h0-22" value="Item 3" style="text;strokeColor=none;fillColor=none;align=left;verticalAlign=middle;spacingLeft=4;spacingRight=4;overflow=hidden;points=[[0,0.5],[1,0.5]];portConstraint=eastwest;rotatable=0;whiteSpace=wrap;html=1;" vertex="1" parent="OzQIe0mRv0SgeH8xm8h0-19">
          <mxGeometry y="90" width="140" height="30" as="geometry" />
        </mxCell>
      </root>
    </mxGraphModel>
  </diagram>
</mxfile>
